<svg xmlns="http://www.w3.org/2000/svg" viewBox="0 0 880 260" role="img" aria-labelledby="derrrLogoTitle derrrLogoDesc">
  <title id="derrrLogoTitle">DERRR</title>
  <desc id="derrrLogoDesc">DERRR wordmark with a simplified drooling clipboard goblin mascot.</desc>

  <defs>
    <radialGradient id="skin" cx="40%" cy="35%" r="75%">
      <stop offset="0%" stop-color="#a8f3a2"/>
      <stop offset="55%" stop-color="#7ee787"/>
      <stop offset="100%" stop-color="#3f8a4a"/>
    </radialGradient>
    <linearGradient id="drool" x1="0" y1="0" x2="0" y2="1">
      <stop offset="0%" stop-color="#cfeaff" stop-opacity="0.95"/>
      <stop offset="100%" stop-color="#6fb8ff" stop-opacity="0.95"/>
    </linearGradient>
    <linearGradient id="paper" x1="0" y1="0" x2="0" y2="1">
      <stop offset="0%" stop-color="#f5f1e6"/>
      <stop offset="100%" stop-color="#d9cfb4"/>
    </linearGradient>

    <symbol id="goblin" viewBox="-110 -120 220 260" overflow="visible">
      <path d="M-70,-10 L-98,-55 L-58,-35 Z" fill="url(#skin)" stroke="#1f3a24" stroke-width="2.5" stroke-linejoin="round"/>
      <path d="M70,-8 L102,-58 L60,-34 Z" fill="url(#skin)" stroke="#1f3a24" stroke-width="2.5" stroke-linejoin="round"/>
      <path d="M-68,-40 C-82,-72 -40,-108 -2,-104 C36,-100 78,-78 80,-38 C84,-2 72,30 60,48 C48,66 24,82 0,80 C-26,82 -52,62 -66,42 C-84,16 -82,-12 -68,-40 Z" fill="url(#skin)" stroke="#1f3a24" stroke-width="3" stroke-linejoin="round"/>
      <circle cx="-26" cy="-18" r="22" fill="#f5faf3" stroke="#1f3a24" stroke-width="2.5"/>
      <circle cx="30" cy="-16" r="26" fill="#f5faf3" stroke="#1f3a24" stroke-width="2.5"/>
      <circle cx="-22" cy="-14" r="8.5" fill="#0b0b14"/>
      <circle cx="36" cy="-10" r="10" fill="#0b0b14"/>
      <circle cx="-25" cy="-17" r="2.4" fill="#ffffff"/>
      <circle cx="33" cy="-13" r="3" fill="#ffffff"/>
      <g fill="none" stroke="#a5a1ff" stroke-width="3.2">
        <circle cx="-26" cy="-18" r="24"/>
        <circle cx="30" cy="-16" r="28"/>
        <path d="M-2,-18 L2,-16"/>
      </g>
      <path d="M-46,-48 Q0,-60 56,-46" stroke="#1f3a24" stroke-width="3" fill="none" stroke-linecap="round"/>
      <path d="M-18,42 Q4,58 26,42" stroke="#1f3a24" stroke-width="3" fill="none" stroke-linecap="round"/>
      <path d="M-4,44 L-2,56 L4,46 Z" fill="#fff8dc" stroke="#1f3a24" stroke-width="1.2"/>
      <path d="M16,50 Q14,70 20,86 Q26,100 22,112 Q18,100 16,92 Q14,76 16,50 Z" fill="url(#drool)" stroke="#3a7bb8" stroke-width="1.2"/>
      <circle cx="19" cy="117" r="5" fill="url(#drool)" stroke="#3a7bb8" stroke-width="1.2"/>
      <g transform="translate(-96 58) rotate(-12)">
        <rect x="-2" y="-24" width="44" height="54" rx="3" fill="#2a223d" stroke="#1f3a24" stroke-width="2"/>
        <rect x="0" y="-20" width="40" height="46" rx="1.5" fill="url(#paper)"/>
        <rect x="12" y="-30" width="16" height="8" rx="1.5" fill="#c9c2b4" stroke="#1f3a24" stroke-width="1.5"/>
        <g stroke="#1f3a24" stroke-width="1.4" stroke-linecap="round" fill="none">
          <path d="M6,-12 L10,-8 L18,-16"/>
          <path d="M22,-12 L34,-12"/>
          <path d="M6,0 L10,4 L18,-4"/>
          <path d="M22,0 L34,0"/>
        </g>
      </g>
    </symbol>
  </defs>

  <g transform="translate(144 130)">
    <use href="#goblin" width="220" height="260" x="-110" y="-120"/>
  </g>

  <g font-family="ui-monospace,'JetBrains Mono','Fira Code',Menlo,Consolas,monospace" font-weight="900" font-size="152" letter-spacing="-5">
    <text x="276" y="164" fill="#7ee787">D</text>
    <text x="378" y="164" fill="#f6c177">E</text>
    <text x="480" y="164" fill="#ff7b72">R</text>
    <text x="582" y="164" fill="#ff6ac1">R</text>
    <text x="684" y="164" fill="#a5a1ff">R</text>
  </g>

  <g font-family="ui-sans-serif,system-ui,-apple-system,'Segoe UI',Inter,sans-serif" font-size="23" font-weight="650">
    <text x="280" y="206" fill="#d0d7de">Document · Execute · Review · Research · Restart</text>
    <text x="280" y="232" fill="#8b949e" font-size="18">method-first, slightly feral, audit trail included</text>
  </g>
</svg>
