<svg xmlns="http://www.w3.org/2000/svg" viewBox="0 0 1280 640" role="img" aria-labelledby="derrrOgTitle derrrOgDesc">
  <title id="derrrOgTitle">DERRR — making your dumb agents smart</title>
  <desc id="derrrOgDesc">Social preview card for the DERRR repo. Document, Execute, Review, Research, Restart. A hypothesis-driven loop for agent systems and large codebases.</desc>

  <defs>
    <linearGradient id="ogBg" x1="0" y1="0" x2="1" y2="1">
      <stop offset="0%"   stop-color="#05040a"/>
      <stop offset="55%"  stop-color="#0a0712"/>
      <stop offset="100%" stop-color="#120a1c"/>
    </linearGradient>
    <radialGradient id="ogGlow" cx="78%" cy="38%" r="55%">
      <stop offset="0%"   stop-color="#3a1f5a" stop-opacity="0.55"/>
      <stop offset="100%" stop-color="#3a1f5a" stop-opacity="0"/>
    </radialGradient>
    <radialGradient id="ogSkin" cx="38%" cy="32%" r="78%">
      <stop offset="0%"   stop-color="#aef3a6"/>
      <stop offset="55%"  stop-color="#7ee787"/>
      <stop offset="100%" stop-color="#356b3c"/>
    </radialGradient>
    <linearGradient id="ogDrool" x1="0" y1="0" x2="0" y2="1">
      <stop offset="0%"   stop-color="#cfeaff" stop-opacity="0.95"/>
      <stop offset="100%" stop-color="#6fb8ff" stop-opacity="0.95"/>
    </linearGradient>
    <linearGradient id="ogPaper" x1="0" y1="0" x2="0" y2="1">
      <stop offset="0%"   stop-color="#f5f1e6"/>
      <stop offset="100%" stop-color="#d9cfb4"/>
    </linearGradient>
    <style><![CDATA[
      .mono { font-family: ui-monospace,"JetBrains Mono","Fira Code","SF Mono",Menlo,Consolas,monospace; }
      .sans { font-family: ui-sans-serif,system-ui,-apple-system,"Segoe UI",Inter,sans-serif; }
    ]]></style>
  </defs>

  <!-- background -->
  <rect width="1280" height="640" fill="url(#ogBg)"/>
  <rect width="1280" height="640" fill="url(#ogGlow)"/>

  <!-- subtle grid -->
  <g stroke="#1a1530" stroke-width="1" opacity="0.5">
    <path d="M0 160H1280M0 320H1280M0 480H1280"/>
    <path d="M320 0V640M640 0V640M960 0V640"/>
  </g>

  <!-- terminal frame -->
  <rect x="28" y="28" width="1224" height="584" rx="10" fill="none" stroke="#2a223d" stroke-width="2"/>

  <!-- terminal chrome strip -->
  <g class="mono" font-size="14" fill="#6b5f85">
    <text x="48" y="58">┌─ derrr@main ── status: duct tape showing ── uptime: vibes ── goblins: 1 ✓ ─────────────────────────────────────────────────────────┐</text>
    <text x="48" y="600">└─ press any key to continue spiraling ─────────────────────────────── v0.1 · MIT · method-first · markdown-native ─────────────────┘</text>
  </g>

  <!-- wordmark -->
  <g class="mono" font-weight="900" font-size="210" letter-spacing="-8">
    <text x="72"  y="270" fill="#7ee787">D</text>
    <text x="230" y="270" fill="#f6c177">E</text>
    <text x="390" y="270" fill="#ff7b72" transform="rotate(-2 470 240)">R</text>
    <text x="548" y="282" fill="#ff6ac1" transform="rotate(3 628 240)" font-size="220">R</text>
    <text x="718" y="266" fill="#a5a1ff" transform="rotate(-4 798 240)" font-size="194">R</text>
  </g>

  <!-- tagline -->
  <g class="sans" font-size="28" fill="#c9d1d9" font-weight="600">
    <text x="76" y="330">making your dumb agents smart</text>
  </g>
  <g class="mono" font-size="18" fill="#8b949e">
    <text x="76" y="362">hypothesis-driven loop for agent systems and large codebases</text>
  </g>

  <!-- loop chips -->
  <g transform="translate(76 400)" class="mono" font-size="16" font-weight="700">
    <g>
      <rect x="0" y="0" width="140" height="44" rx="8" fill="#0e1a10" stroke="#7ee787" stroke-width="1.6"/>
      <text x="70" y="28" text-anchor="middle" fill="#7ee787">Document</text>
    </g>
    <text x="150" y="28" fill="#4b4666" font-size="22">→</text>
    <g transform="translate(172 0)">
      <rect x="0" y="0" width="120" height="44" rx="8" fill="#1a1609" stroke="#f6c177" stroke-width="1.6"/>
      <text x="60" y="28" text-anchor="middle" fill="#f6c177">Execute</text>
    </g>
    <text x="302" y="28" fill="#4b4666" font-size="22">→</text>
    <g transform="translate(324 0)">
      <rect x="0" y="0" width="110" height="44" rx="8" fill="#1c0e0e" stroke="#ff7b72" stroke-width="1.6"/>
      <text x="55" y="28" text-anchor="middle" fill="#ff7b72">Review</text>
    </g>
    <text x="444" y="28" fill="#4b4666" font-size="22">→</text>
    <g transform="translate(466 0)">
      <rect x="0" y="0" width="130" height="44" rx="8" fill="#1d0c18" stroke="#ff6ac1" stroke-width="1.6"/>
      <text x="65" y="28" text-anchor="middle" fill="#ff6ac1">Research</text>
    </g>
    <text x="606" y="28" fill="#4b4666" font-size="22">→</text>
    <g transform="translate(628 0)">
      <rect x="0" y="0" width="110" height="44" rx="8" fill="#121128" stroke="#a5a1ff" stroke-width="1.6"/>
      <text x="55" y="28" text-anchor="middle" fill="#a5a1ff">Restart</text>
    </g>
  </g>

  <!-- loopback arrow -->
  <g stroke="#6e7681" stroke-width="1.6" fill="none">
    <path d="M814 422 Q862 422 862 400 Q862 370 830 370 L96 370 Q70 370 70 394 Q70 422 98 422"
          stroke-dasharray="5 6"/>
    <polygon points="92,416 104,422 92,428" fill="#6e7681" stroke="none"/>
  </g>
  <text x="820" y="426" class="mono" font-size="14" fill="#6e7681" font-style="italic">…loop</text>

  <!-- before/after strip -->
  <g class="mono" font-size="16" transform="translate(76 492)">
    <text x="0"   y="0" fill="#ff7b72">"seems fine?"</text>
    <text x="150" y="0" fill="#6e7681">⟶</text>
    <text x="180" y="0" fill="#7ee787">proved in review</text>

    <text x="0"   y="28" fill="#ff7b72">campfire story</text>
    <text x="150" y="28" fill="#6e7681">⟶</text>
    <text x="180" y="28" fill="#7ee787">audit trail</text>

    <text x="0"   y="56" fill="#ff7b72">vibes goblin</text>
    <text x="150" y="56" fill="#6e7681">⟶</text>
    <text x="180" y="56" fill="#7ee787">evidence goblin w/ clipboard</text>
  </g>

  <!-- goblin mascot right side -->
  <g transform="translate(1020 340) scale(1.65)">
    <!-- ears -->
    <path d="M-68,-10 L-94,-54 L-56,-34 Z" fill="url(#ogSkin)" stroke="#1f3a24" stroke-width="2.4" stroke-linejoin="round"/>
    <path d="M68,-8   L96,-56  L58,-32 Z" fill="url(#ogSkin)" stroke="#1f3a24" stroke-width="2.4" stroke-linejoin="round"/>
    <!-- head -->
    <path d="M-66,-38 C-80,-70 -38,-104 0,-100 C38,-96 78,-76 80,-36 C84,0 72,30 58,46 C44,64 22,80 0,78 C-26,80 -52,60 -66,40 C-82,16 -80,-12 -66,-38 Z"
          fill="url(#ogSkin)" stroke="#1f3a24" stroke-width="2.6" stroke-linejoin="round"/>
    <!-- cheeks -->
    <ellipse cx="-42" cy="30" rx="12" ry="7" fill="#5ab65f" opacity="0.55"/>
    <ellipse cx="42"  cy="32" rx="12" ry="7" fill="#5ab65f" opacity="0.55"/>
    <!-- eyes -->
    <circle cx="-26" cy="-16" r="22" fill="#f5faf3" stroke="#1f3a24" stroke-width="2.2"/>
    <circle cx="30"  cy="-14" r="26" fill="#f5faf3" stroke="#1f3a24" stroke-width="2.2"/>
    <circle cx="-22" cy="-12" r="9"  fill="#0b0b14"/>
    <circle cx="36"  cy="-8"  r="11" fill="#0b0b14"/>
    <circle cx="-25" cy="-15" r="2.6" fill="#ffffff"/>
    <circle cx="33"  cy="-11" r="3.2" fill="#ffffff"/>
    <!-- glasses -->
    <g fill="none" stroke="#a5a1ff" stroke-width="3.2">
      <circle cx="-26" cy="-16" r="24"/>
      <circle cx="30"  cy="-14" r="28"/>
      <path d="M-2,-16 L2,-14"/>
    </g>
    <!-- unibrow -->
    <path d="M-46,-46 Q0,-58 56,-44" stroke="#1f3a24" stroke-width="2.8" fill="none" stroke-linecap="round"/>
    <!-- mouth + fang -->
    <path d="M-18,40 Q4,56 26,40" stroke="#1f3a24" stroke-width="2.6" fill="none" stroke-linecap="round"/>
    <path d="M-4,42 L-2,54 L4,44 Z" fill="#fff8dc" stroke="#1f3a24" stroke-width="1.2"/>
    <!-- drool -->
    <path d="M16,48 Q14,66 20,80 Q24,92 22,100 Q18,90 16,82 Q14,68 16,48 Z"
          fill="url(#ogDrool)" stroke="#3a7bb8" stroke-width="1.2"/>
    <circle cx="19" cy="104" r="4.2" fill="url(#ogDrool)" stroke="#3a7bb8" stroke-width="1.2"/>
    <!-- clipboard -->
    <g transform="translate(-92 58) rotate(-12)">
      <rect x="-2" y="-24" width="44" height="54" rx="3" fill="#2a223d" stroke="#1f3a24" stroke-width="2"/>
      <rect x="0"  y="-20" width="40" height="46" rx="1.5" fill="url(#ogPaper)"/>
      <rect x="12" y="-30" width="16" height="8" rx="1.5" fill="#c9c2b4" stroke="#1f3a24" stroke-width="1.2"/>
      <g stroke="#1f3a24" stroke-width="1.4" stroke-linecap="round" fill="none">
        <path d="M6,-12 L10,-8 L18,-16"/>
        <path d="M22,-12 L34,-12"/>
        <path d="M6,0 L10,4 L18,-4"/>
        <path d="M22,0 L34,0"/>
        <path d="M6,12 L34,12" stroke-dasharray="2 2"/>
        <path d="M6,22 L34,22" stroke-dasharray="2 2"/>
      </g>
    </g>
  </g>

  <!-- repo tag corner -->
  <g class="mono" font-size="14" fill="#6e7681">
    <text x="1120" y="590" text-anchor="end">github.com/Zzzero-hash/derrr</text>
  </g>
</svg>
