<svg xmlns="http://www.w3.org/2000/svg" viewBox="0 0 1000 760" role="img" aria-labelledby="derrrLoopTitle derrrLoopDesc">
  <title id="derrrLoopTitle">The DERRR loop</title>
  <desc id="derrrLoopDesc">Five phases arranged in a clockwise loop: Document, Execute, Review, Research, Restart. The diagram is simplified for README readability at small sizes.</desc>

  <defs>
    <linearGradient id="dBg" x1="0" y1="0" x2="1" y2="1">
      <stop offset="0%" stop-color="#05040a"/>
      <stop offset="55%" stop-color="#0a0712"/>
      <stop offset="100%" stop-color="#120a1c"/>
    </linearGradient>
    <style><![CDATA[
      .mono { font-family: ui-monospace,"JetBrains Mono","Fira Code","SF Mono",Menlo,Consolas,monospace; }
      .sans { font-family: ui-sans-serif,system-ui,-apple-system,"Segoe UI",Inter,sans-serif; }
    ]]></style>
    <marker id="ah" viewBox="0 0 10 10" refX="8" refY="5" markerWidth="8" markerHeight="8" orient="auto-start-reverse">
      <path d="M0,0 L10,5 L0,10 Z" fill="#6e7681"/>
    </marker>
  </defs>

  <rect width="1000" height="760" fill="url(#dBg)"/>

  <g stroke="#1a1530" stroke-width="1" opacity="0.35">
    <path d="M0 160H1000M0 320H1000M0 480H1000M0 640H1000"/>
    <path d="M200 0V760M400 0V760M600 0V760M800 0V760"/>
  </g>

  <g class="mono" fill="#c9d1d9">
    <text x="500" y="58" text-anchor="middle" font-size="30" font-weight="700" letter-spacing="2">THE DERRR LOOP</text>
    <text x="500" y="88" text-anchor="middle" font-size="16" fill="#8b949e">document first, then make one justified move</text>
  </g>

  <circle cx="500" cy="420" r="230" fill="none" stroke="#2a223d" stroke-width="2" stroke-dasharray="5 9"/>

  <g transform="translate(500 420)">
    <circle r="112" fill="#120f1f" stroke="#3a3250" stroke-width="2"/>
    <text y="-18" text-anchor="middle" class="sans" font-size="30" font-weight="700" fill="#c9d1d9">one active</text>
    <text y="18" text-anchor="middle" class="sans" font-size="30" font-weight="700" fill="#c9d1d9">slice</text>
    <text y="56" text-anchor="middle" class="mono" font-size="16" fill="#8b949e">record first</text>
  </g>

  <g transform="translate(500 190)">
    <circle r="60" fill="#0e1a10" stroke="#7ee787" stroke-width="3"/>
    <text y="-6" text-anchor="middle" class="mono" font-size="12" fill="#4b4666">01</text>
    <text y="16" text-anchor="middle" class="sans" font-size="24" font-weight="700" fill="#7ee787">Document</text>
  </g>

  <g transform="translate(718 350)">
    <circle r="60" fill="#1a1609" stroke="#f6c177" stroke-width="3"/>
    <text y="-6" text-anchor="middle" class="mono" font-size="12" fill="#4b4666">02</text>
    <text y="16" text-anchor="middle" class="sans" font-size="24" font-weight="700" fill="#f6c177">Execute</text>
  </g>

  <g transform="translate(634 608)">
    <circle r="60" fill="#1c0e0e" stroke="#ff7b72" stroke-width="3"/>
    <text y="-6" text-anchor="middle" class="mono" font-size="12" fill="#4b4666">03</text>
    <text y="16" text-anchor="middle" class="sans" font-size="24" font-weight="700" fill="#ff7b72">Review</text>
  </g>

  <g transform="translate(366 608)">
    <circle r="60" fill="#1d0c18" stroke="#ff6ac1" stroke-width="3"/>
    <text y="-6" text-anchor="middle" class="mono" font-size="12" fill="#4b4666">04</text>
    <text y="16" text-anchor="middle" class="sans" font-size="24" font-weight="700" fill="#ff6ac1">Research</text>
  </g>

  <g transform="translate(282 350)">
    <circle r="60" fill="#121128" stroke="#a5a1ff" stroke-width="3"/>
    <text y="-6" text-anchor="middle" class="mono" font-size="12" fill="#4b4666">05</text>
    <text y="16" text-anchor="middle" class="sans" font-size="24" font-weight="700" fill="#a5a1ff">Restart</text>
  </g>

  <path d="M 554 198 A 230 230 0 0 1 664 279" fill="none" stroke="#6e7681" stroke-width="3" marker-end="url(#ah)"/>
  <path d="M 732 408 A 230 230 0 0 1 680 520" fill="none" stroke="#6e7681" stroke-width="3" marker-end="url(#ah)"/>
  <path d="M 576 648 A 230 230 0 0 1 424 648" fill="none" stroke="#6e7681" stroke-width="3" marker-end="url(#ah)"/>
  <path d="M 320 520 A 230 230 0 0 1 268 408" fill="none" stroke="#6e7681" stroke-width="3" marker-end="url(#ah)"/>
  <path d="M 336 279 A 230 230 0 0 1 446 198" fill="none" stroke="#6e7681" stroke-width="3" stroke-dasharray="7 7" marker-end="url(#ah)"/>

  <g class="mono" font-size="16" fill="#c9d1d9">
    <text x="500" y="120" text-anchor="middle">record the slice</text>
    <text x="828" y="354" text-anchor="start">one narrow move</text>
    <text x="726" y="676" text-anchor="start">what happened?</text>
    <text x="274" y="676" text-anchor="end">unblock the next move</text>
    <text x="170" y="354" text-anchor="end">close cleanly</text>
  </g>

  <text x="500" y="728" text-anchor="middle" class="mono" font-size="15" fill="#8b949e">research is optional when review already tells you what to do next</text>
</svg>
