<svg xmlns="http://www.w3.org/2000/svg" viewBox="0 0 1280 400" role="img" aria-label="DERRR — Document · Execute · Review · Research · Restart. Making your dumb agents smart.">
  <title>DERRR</title>
  <desc>Document → Execute → Review → Research → Restart. A hypothesis-driven improvement loop for live agent systems.</desc>

  <defs>
    <linearGradient id="bg" x1="0" y1="0" x2="1" y2="1">
      <stop offset="0%"  stop-color="#040407"/>
      <stop offset="55%" stop-color="#080913"/>
      <stop offset="100%" stop-color="#0d0916"/>
    </linearGradient>
    <style><![CDATA[
      .mono { font-family: ui-monospace,"JetBrains Mono","Fira Code","SF Mono",Menlo,Consolas,monospace; }
      .sans { font-family: ui-sans-serif,system-ui,-apple-system,"Segoe UI",Inter,sans-serif; }
      @keyframes fl1 { 0%,96%{opacity:1} 97%{opacity:.2} 98%{opacity:.9} 100%{opacity:1} }
      @keyframes fl2 { 0%,90%{opacity:1} 91%{opacity:.15} 92%{opacity:1} 96%{opacity:.5} 100%{opacity:1} }
      @keyframes wob { 0%,100%{transform:translateY(0) rotate(0)} 50%{transform:translateY(-2px) rotate(1deg)} }
      .flicker1 { animation: fl1 2.4s steps(1) infinite; }
      .flicker2 { animation: fl2 3.3s steps(1) infinite; }
      .wobble   { animation: wob 4.2s ease-in-out infinite; transform-origin:center; transform-box:fill-box; }
    ]]></style>
  </defs>

  <rect width="1280" height="400" fill="url(#bg)"/>

  <!-- faint grid -->
  <g stroke="#161222" stroke-width="1" opacity="0.42">
    <path d="M0 80H1280M0 160H1280M0 240H1280M0 320H1280"/>
    <path d="M160 0V400M320 0V400M480 0V400M640 0V400M800 0V400M960 0V400M1120 0V400"/>
  </g>

  <!-- terminal frame -->
  <rect x="20" y="20" width="1240" height="360" rx="6" fill="none" stroke="#2a223d" stroke-width="1.5"/>

  <g class="mono" font-size="11" fill="#6b5f85">
    <text x="36" y="42">┌─ derrr@main ── status: duct tape showing ── uptime: vibes ── goblins: 1 (acquired clipboard ✓) ─────────────────────────────────────┐</text>
    <text x="36" y="372">└─ press any key to continue spiraling ─────────────────────────── v0.1 · MIT · method-first · markdown-native · less-wrong-maxxing ─┘</text>
  </g>

  <!-- GIANT DERRR -->
  <g class="mono" font-weight="900" font-size="200" letter-spacing="-6">
    <text x="60"  y="230" fill="#7ee787" transform="rotate(-1.5 140 200)">D</text>
    <text x="210" y="230" fill="#f6c177" transform="rotate(2    290 200)">E</text>
    <text x="365" y="230" fill="#ff7b72" transform="rotate(-3.5 450 200)" class="wobble">R</text>
    <text x="520" y="242" fill="#ff6ac1" transform="rotate(5    605 200)" font-size="220">R</text>
    <text x="690" y="226" fill="#a5a1ff" transform="rotate(-6.5 775 200)" font-size="185" class="flicker1">R</text>
  </g>

  <!-- nerd glasses (replaces 🤓) -->
  <g transform="translate(858 168)" stroke="#7ee787" stroke-width="3.2" fill="none">
    <circle cx="10"  cy="12" r="12"/>
    <circle cx="40"  cy="12" r="12"/>
    <path d="M22 12 L28 12"/>
    <path d="M4 8 L10 2" stroke="#ffffff" stroke-width="2" opacity="0.85"/>
    <path d="M34 8 L40 2" stroke="#ffffff" stroke-width="2" opacity="0.85"/>
  </g>
  <path d="M855 210 Q880 218 905 210" stroke="#7ee787" stroke-width="3" fill="none" stroke-linecap="round"/>

  <!-- acronym expansion -->
  <g class="mono" font-size="22" font-weight="700">
    <text x="62" y="290" fill="#c9d1d9">
      <tspan fill="#7ee787">D</tspan>ocument
      <tspan dx="6" fill="#6e7681">→</tspan>
      <tspan dx="6" fill="#f6c177">E</tspan>xecute
      <tspan dx="6" fill="#6e7681">→</tspan>
      <tspan dx="6" fill="#ff7b72">R</tspan>eview
      <tspan dx="6" fill="#6e7681">→</tspan>
      <tspan dx="6" fill="#ff6ac1">R</tspan>esearch
      <tspan dx="6" fill="#6e7681">→</tspan>
      <tspan dx="6" fill="#a5a1ff">R</tspan>estart
    </text>
  </g>
  <g stroke="#6e7681" fill="none" stroke-width="1.4">
    <path d="M70 302 Q70 318 86 318 L690 318 Q706 318 706 302" stroke-dasharray="3 4"/>
    <polygon points="64,304 74,300 74,308" fill="#6e7681" stroke="none"/>
  </g>
  <text x="720" y="322" class="mono" font-size="12" fill="#6e7681" font-style="italic">…and again, until the raccoon is legible</text>

  <!-- tagline (short + punchy, leaves room for goblin) -->
  <g class="sans" font-size="16" fill="#8b949e">
    <text x="62" y="350">
      making your dumb agents smart · from
      <tspan fill="#ff7b72" font-style="italic">"seems fine?"</tspan>
      to
      <tspan fill="#7ee787" font-style="italic">"proved in review"</tspan>
    </text>
  </g>

  <!-- dashboard -->
  <g transform="translate(950 62)" class="mono">
    <rect x="0" y="0" width="292" height="170" rx="4" fill="#09060f" stroke="#2a223d"/>
    <text x="12" y="18" font-size="10" fill="#a5a1ff">╔═ DERRR DASHBOARD ═ LIVE <tspan fill="#ff6ac1" class="flicker2">●</tspan> ══╗</text>

    <text x="12" y="38" font-size="9" fill="#6e7681">DEBUG STYLE</text>
    <text x="12" y="52" font-size="11" fill="#ff7b72">vibes goblin</text>
    <text x="110" y="52" font-size="11" fill="#6e7681">→</text>
    <text x="124" y="52" font-size="10" fill="#7ee787">evidence goblin</text>
    <text x="124" y="64" font-size="10" fill="#7ee787">with clipboard</text>

    <text x="12" y="82" font-size="9" fill="#6e7681">WORK UNIT</text>
    <text x="12" y="96" font-size="11" fill="#ff7b72">screaming blob</text>
    <text x="120" y="96" font-size="11" fill="#6e7681">→</text>
    <text x="134" y="96" font-size="11" fill="#7ee787">narrow slice</text>

    <text x="12" y="118" font-size="9" fill="#6e7681">SYSTEM STATE</text>
    <text x="12" y="132" font-size="11" fill="#ff7b72">cursed raccoon</text>
    <text x="120" y="132" font-size="11" fill="#6e7681">→</text>
    <text x="134" y="132" font-size="11" fill="#7ee787">legible raccoon</text>

    <text x="12" y="154" font-size="9" fill="#6e7681">SUCCESS CRITERION</text>
    <text x="12" y="168" font-size="11" fill="#ff7b72">"seems fine?"</text>
    <text x="110" y="168" font-size="11" fill="#6e7681">→</text>
    <text x="124" y="168" font-size="11" fill="#7ee787">proved in review</text>
  </g>

  <!-- goblin ASCII (trimmed, tucked right of tagline) -->
  <g transform="translate(1070 252)" class="mono" font-size="13" fill="#c9d1d9">
    <text x="0" y="0"  xml:space="preserve">   .-'''''-.   </text>
    <text x="0" y="16" xml:space="preserve">  /  o   o  \  </text>
    <text x="0" y="32" xml:space="preserve"> |   \___/   | </text>
    <text x="0" y="48" xml:space="preserve">  \  '---'  /  </text>
    <text x="0" y="64" xml:space="preserve" fill="#7ee787">   '-.___.-'   </text>
    <text x="0" y="82" fill="#7ee787" font-size="10" font-style="italic" xml:space="preserve">  "evidence</text>
    <text x="0" y="95" fill="#7ee787" font-size="10" font-style="italic" xml:space="preserve">   acquired"</text>
    <!-- little clipboard beside head -->
    <g transform="translate(130 8)" stroke="#a5a1ff" fill="none" stroke-width="1.2">
      <rect x="0" y="0" width="18" height="24" rx="1.5"/>
      <rect x="5" y="-3" width="8" height="5" rx="1" fill="#a5a1ff"/>
      <path d="M3 8H15M3 12H15M3 16H11" stroke-width="1"/>
      <text x="2" y="35" font-family="monospace" font-size="8" fill="#7ee787" stroke="none">✓ logged</text>
    </g>
  </g>

  <!-- floating absurdist labels -->
  <g class="mono" font-size="11">
    <text x="62"  y="68"  fill="#6e7681">// campfire story with CI attached</text>
    <text x="500" y="62"  fill="#ff7b72" transform="rotate(-3 560 58)" class="flicker1">⚠ caffeine improv detected</text>
    <text x="875" y="260" fill="#6e7681" transform="rotate(-4 920 256)" font-size="10">⌐ THIS SIDE ↑ probably</text>
  </g>


</svg>
